<mxfile host="app.diagrams.net" modified="2023-05-30T10:20:35.181Z" agent="Mozilla/5.0 (Macintosh; Intel Mac OS X 10_15_7) AppleWebKit/537.36 (KHTML, like Gecko) Chrome/113.0.0.0 Safari/537.36" version="21.3.2" etag="t7gTTDaFfxyKqNNbc72U" type="github">
  <diagram name="Page-1" id="mRSPvqRTiv9mpqtDV_Xs">
    <mxGraphModel>
      <root>
        <mxCell id="0" />
        <mxCell id="1" parent="0" />
      </root>
    </mxGraphModel>
  </diagram>
</mxfile>
